<mxfile host="app.diagrams.net" modified="2022-06-05T02:55:00.428Z" agent="5.0 (Macintosh; Intel Mac OS X 10_15_7) AppleWebKit/537.36 (KHTML, like Gecko) Chrome/102.0.5005.61 Safari/537.36" etag="2qtXwyFb2xxzUe0zFPYz" version="18.0.5" type="github">
  <diagram id="u-8d7k68cKM8uF-CMaQ-" name="Page-1">
    <mxGraphModel dx="1247" dy="841" grid="1" gridSize="10" guides="1" tooltips="1" connect="1" arrows="1" fold="1" page="1" pageScale="1" pageWidth="827" pageHeight="1169" math="0" shadow="0">
      <root>
        <mxCell id="0" />
        <mxCell id="1" parent="0" />
        <mxCell id="US2xPwQ7wRUIvqG-spL2-1" value="" style="rounded=0;whiteSpace=wrap;html=1;" vertex="1" parent="1">
          <mxGeometry x="140" y="270" width="60" height="130" as="geometry" />
        </mxCell>
        <mxCell id="US2xPwQ7wRUIvqG-spL2-2" value="&lt;font style=&quot;font-size: 18px;&quot;&gt;物理&lt;br&gt;页帧&lt;/font&gt;" style="rounded=0;whiteSpace=wrap;html=1;fillColor=#ffe6cc;strokeColor=#d79b00;" vertex="1" parent="1">
          <mxGeometry x="200" y="270" width="60" height="130" as="geometry" />
        </mxCell>
        <mxCell id="US2xPwQ7wRUIvqG-spL2-3" value="..." style="rounded=0;whiteSpace=wrap;html=1;" vertex="1" parent="1">
          <mxGeometry x="260" y="270" width="60" height="130" as="geometry" />
        </mxCell>
        <mxCell id="US2xPwQ7wRUIvqG-spL2-4" value="..." style="rounded=0;whiteSpace=wrap;html=1;" vertex="1" parent="1">
          <mxGeometry x="320" y="270" width="60" height="130" as="geometry" />
        </mxCell>
        <mxCell id="US2xPwQ7wRUIvqG-spL2-13" style="edgeStyle=orthogonalEdgeStyle;rounded=0;orthogonalLoop=1;jettySize=auto;html=1;exitX=0.5;exitY=0;exitDx=0;exitDy=0;entryX=0.5;entryY=0;entryDx=0;entryDy=0;fontSize=18;" edge="1" parent="1" source="US2xPwQ7wRUIvqG-spL2-5" target="US2xPwQ7wRUIvqG-spL2-6">
          <mxGeometry relative="1" as="geometry">
            <Array as="points">
              <mxPoint x="410" y="230" />
              <mxPoint x="470" y="230" />
            </Array>
          </mxGeometry>
        </mxCell>
        <mxCell id="US2xPwQ7wRUIvqG-spL2-14" value="2" style="edgeLabel;html=1;align=center;verticalAlign=middle;resizable=0;points=[];fontSize=18;" vertex="1" connectable="0" parent="US2xPwQ7wRUIvqG-spL2-13">
          <mxGeometry x="-0.0286" y="2" relative="1" as="geometry">
            <mxPoint as="offset" />
          </mxGeometry>
        </mxCell>
        <mxCell id="US2xPwQ7wRUIvqG-spL2-5" value="&lt;font style=&quot;font-size: 18px;&quot;&gt;一级&lt;br&gt;页表&lt;/font&gt;" style="rounded=0;whiteSpace=wrap;html=1;fillColor=#d5e8d4;strokeColor=#82b366;" vertex="1" parent="1">
          <mxGeometry x="380" y="270" width="60" height="130" as="geometry" />
        </mxCell>
        <mxCell id="US2xPwQ7wRUIvqG-spL2-15" style="edgeStyle=orthogonalEdgeStyle;rounded=0;orthogonalLoop=1;jettySize=auto;html=1;exitX=0.5;exitY=1;exitDx=0;exitDy=0;entryX=0.5;entryY=1;entryDx=0;entryDy=0;fontSize=18;" edge="1" parent="1" source="US2xPwQ7wRUIvqG-spL2-6" target="US2xPwQ7wRUIvqG-spL2-7">
          <mxGeometry relative="1" as="geometry">
            <Array as="points">
              <mxPoint x="470" y="450" />
              <mxPoint x="530" y="450" />
            </Array>
          </mxGeometry>
        </mxCell>
        <mxCell id="US2xPwQ7wRUIvqG-spL2-16" value="3" style="edgeLabel;html=1;align=center;verticalAlign=middle;resizable=0;points=[];fontSize=18;" vertex="1" connectable="0" parent="US2xPwQ7wRUIvqG-spL2-15">
          <mxGeometry x="-0.025" relative="1" as="geometry">
            <mxPoint as="offset" />
          </mxGeometry>
        </mxCell>
        <mxCell id="US2xPwQ7wRUIvqG-spL2-6" value="&lt;font style=&quot;font-size: 18px;&quot;&gt;二级&lt;br&gt;页表&lt;/font&gt;" style="rounded=0;whiteSpace=wrap;html=1;fillColor=#d5e8d4;strokeColor=#82b366;" vertex="1" parent="1">
          <mxGeometry x="440" y="270" width="60" height="130" as="geometry" />
        </mxCell>
        <mxCell id="US2xPwQ7wRUIvqG-spL2-17" style="edgeStyle=orthogonalEdgeStyle;rounded=0;orthogonalLoop=1;jettySize=auto;html=1;exitX=0.5;exitY=0;exitDx=0;exitDy=0;entryX=0.5;entryY=0;entryDx=0;entryDy=0;fontSize=18;" edge="1" parent="1" source="US2xPwQ7wRUIvqG-spL2-7" target="US2xPwQ7wRUIvqG-spL2-2">
          <mxGeometry relative="1" as="geometry">
            <Array as="points">
              <mxPoint x="530" y="200" />
              <mxPoint x="230" y="200" />
            </Array>
          </mxGeometry>
        </mxCell>
        <mxCell id="US2xPwQ7wRUIvqG-spL2-18" value="4" style="edgeLabel;html=1;align=center;verticalAlign=middle;resizable=0;points=[];fontSize=18;" vertex="1" connectable="0" parent="US2xPwQ7wRUIvqG-spL2-17">
          <mxGeometry x="0.0045" relative="1" as="geometry">
            <mxPoint as="offset" />
          </mxGeometry>
        </mxCell>
        <mxCell id="US2xPwQ7wRUIvqG-spL2-7" value="&lt;font style=&quot;font-size: 18px;&quot;&gt;三级&lt;br&gt;页表&lt;/font&gt;" style="rounded=0;whiteSpace=wrap;html=1;fillColor=#d5e8d4;strokeColor=#82b366;" vertex="1" parent="1">
          <mxGeometry x="500" y="270" width="60" height="130" as="geometry" />
        </mxCell>
        <mxCell id="US2xPwQ7wRUIvqG-spL2-8" value="" style="rounded=0;whiteSpace=wrap;html=1;" vertex="1" parent="1">
          <mxGeometry x="560" y="270" width="60" height="130" as="geometry" />
        </mxCell>
        <mxCell id="US2xPwQ7wRUIvqG-spL2-11" style="edgeStyle=orthogonalEdgeStyle;rounded=0;orthogonalLoop=1;jettySize=auto;html=1;exitX=0.5;exitY=0;exitDx=0;exitDy=0;entryX=0.5;entryY=1;entryDx=0;entryDy=0;" edge="1" parent="1" source="US2xPwQ7wRUIvqG-spL2-9" target="US2xPwQ7wRUIvqG-spL2-5">
          <mxGeometry relative="1" as="geometry" />
        </mxCell>
        <mxCell id="US2xPwQ7wRUIvqG-spL2-12" value="&lt;font style=&quot;font-size: 18px;&quot;&gt;1&lt;/font&gt;" style="edgeLabel;html=1;align=center;verticalAlign=middle;resizable=0;points=[];" vertex="1" connectable="0" parent="US2xPwQ7wRUIvqG-spL2-11">
          <mxGeometry x="0.1" y="1" relative="1" as="geometry">
            <mxPoint y="6" as="offset" />
          </mxGeometry>
        </mxCell>
        <mxCell id="US2xPwQ7wRUIvqG-spL2-9" value="" style="shape=image;html=1;verticalAlign=top;verticalLabelPosition=bottom;labelBackgroundColor=#ffffff;imageAspect=0;aspect=fixed;image=https://cdn1.iconfinder.com/data/icons/computer-hardware-hand-drawn-vol-1/52/ram__hardware__memory__memorycard__electronics__chip__technology-128.png" vertex="1" parent="1">
          <mxGeometry x="387.5" y="451" width="45" height="45" as="geometry" />
        </mxCell>
        <mxCell id="US2xPwQ7wRUIvqG-spL2-10" value="&lt;font style=&quot;font-size: 18px;&quot;&gt;虚拟页号&lt;/font&gt;" style="text;html=1;align=center;verticalAlign=middle;resizable=0;points=[];autosize=1;strokeColor=none;fillColor=none;" vertex="1" parent="1">
          <mxGeometry x="365" y="496" width="90" height="20" as="geometry" />
        </mxCell>
      </root>
    </mxGraphModel>
  </diagram>
</mxfile>
